<?xml version="1.0" encoding="utf-8"?>
<!-- Generator: Adobe Illustrator 23.1.1, SVG Export Plug-In . SVG Version: 6.00 Build 0)  -->
<svg version="1.1" id="Layer_1" xmlns="http://www.w3.org/2000/svg" xmlns:xlink="http://www.w3.org/1999/xlink" x="0px" y="0px"
	 viewBox="0 0 36 36" style="enable-background:new 0 0 36 36;" xml:space="preserve">
<style type="text/css">
	.st0{fill-rule:evenodd;clip-rule:evenodd;fill:#8C8C8C;stroke:#414141;stroke-miterlimit:10;}
	.st1{fill:#BFBFBF;stroke:#414141;stroke-miterlimit:10;}
	.st2{fill-rule:evenodd;clip-rule:evenodd;fill:#BFBFBF;stroke:#414141;stroke-miterlimit:10;}
</style>
<path class="st0" d="M17.1,35C8.2,35,1,27.9,1,19.2S8.2,3.4,17.1,3.4c1.4,0,2.6,0.2,3.8,0.5c0.1,0,0.2,0,0.3,0
	c0.9,0,2.2-0.6,3.6-1.2c2-0.8,4-1.7,5.9-1.7C32,1,33,1.4,33.8,2.3c2.1,2.1,1,5.7-0.1,8.8c-0.6,1.8-1.2,3.6-0.9,4.6
	c0.3,1.2,0.4,2.3,0.4,3.5C33.2,27.9,26,35,17.1,35z"/>
<path class="st1" d="M32.6,19.2C23.9,19.1,17,12.4,16.8,3.9V3.4h0.5c1.2,0,2.5,0.1,3.6,0.4c0.1,0,0.2,0,0.4,0c0.9,0,2.3-0.6,3.7-1.2
	C26.8,1.9,28.9,1,30.7,1C32,1,33,1.5,33.8,2.3c2.1,2.1,1,5.6,0,8.8c-0.6,1.9-1.3,3.6-1,4.6c0.2,0.9,0.4,1.8,0.4,3v0.5H32.6z"/>
<path class="st2" d="M13.9,34.7c-0.2,0-0.3-0.1-0.4-0.2l-0.6-1l-0.5,0.8c-0.1,0.2-0.3,0.2-0.4,0.2h-0.9c-0.2,0-0.3-0.1-0.4-0.2
	l-0.2-0.4l-0.2,0.4c-0.1,0.1-0.3,0.2-0.4,0.2h-1c-0.2,0-0.3-0.1-0.4-0.2L8,33.4l-0.6,1c-0.1,0.2-0.3,0.2-0.4,0.2H6
	c-0.2,0-0.3-0.1-0.4-0.2l-0.5-0.8c-0.1-0.2-0.1-0.4,0-0.5l0.6-1h-1c-0.2,0-0.3-0.1-0.4-0.2l-0.5-0.8c-0.1-0.2-0.1-0.3,0-0.5L4,30.3
	H3.6c-0.2,0-0.3-0.1-0.4-0.2l-0.5-0.8c-0.1-0.2-0.1-0.4,0-0.5L3.2,28H2c-0.2,0-0.3-0.1-0.4-0.2L1.1,27c-0.1-0.2-0.1-0.4,0-0.5
	l0.5-0.8c0.1-0.1,0.3-0.2,0.4-0.2h1.2l-0.5-0.8c-0.1-0.2-0.1-0.4,0-0.5l0.5-0.8c0.1-0.1,0.3-0.2,0.4-0.2H4l-0.2-0.3
	c-0.1-0.2-0.1-0.4,0-0.5l0.4-0.8c0.1-0.2,0.3-0.2,0.4-0.2h0.9l-0.6-1c-0.1-0.2-0.1-0.4,0-0.5L5.5,19c0.1-0.1,0.3-0.2,0.4-0.2h0.9
	c0.2,0,0.3,0.1,0.4,0.2l0.6,1l0.5-0.8C8.5,19.1,8.7,19,8.8,19h0.9c0.2,0,0.3,0.1,0.4,0.2l0.2,0.4l0.2-0.4c0.1-0.1,0.3-0.2,0.4-0.2
	H12c0.2,0,0.3,0.1,0.4,0.2l0.5,0.8l0.6-1c0.1-0.2,0.3-0.2,0.4-0.2h0.9c0.2,0,0.3,0.1,0.4,0.2l0.5,0.8c0.1,0.2,0.1,0.4,0,0.5l-0.6,1
	H16c0.2,0,0.3,0.1,0.4,0.2l0.5,0.8c0.1,0.2,0.1,0.4,0,0.5l-0.2,0.3h0.4c0.2,0,0.3,0.1,0.4,0.2l0.5,0.8c0.1,0.2,0.1,0.4,0,0.5
	l-0.4,0.8h1.2c0.2,0,0.3,0.1,0.4,0.3l0.4,0.8c0.1,0.2,0.1,0.4,0,0.5l-0.5,0.8c0.1,0.1-0.1,0.2-0.3,0.2h-1.2l0.4,0.8
	c0.1,0.2,0.1,0.3,0,0.5L17.6,30c-0.1,0.2-0.3,0.3-0.4,0.3h-0.3l0.2,0.3c0.1,0.2,0.1,0.4,0,0.5l-0.5,0.8c-0.1,0.1-0.3,0.2-0.4,0.2
	h-0.9l0.6,1c0.1,0.2,0.1,0.4,0,0.5l-0.5,0.8c-0.1,0.1-0.3,0.2-0.4,0.2h-1.1C13.9,34.6,13.9,34.7,13.9,34.7z M10.4,32.5l1-1.6l-1-1.6
	l-1,1.6L10.4,32.5z M15.6,29.6l-1-1.6h-1.9l1,1.6H15.6z M7.2,29.6L8.1,28H6.2l-0.9,1.6H7.2z M14.6,25.4l0.9-1.6h-1.9l-0.9,1.6H14.6z
	 M8.2,25.4l-0.9-1.6h-2l0.9,1.6H8.2z M10.4,24.2l1-1.6l-1-1.6l-1,1.6L10.4,24.2z"/>
</svg>
