<?xml version="1.0" encoding="utf-8"?>
<!-- Generator: Adobe Illustrator 23.1.1, SVG Export Plug-In . SVG Version: 6.00 Build 0)  -->
<svg version="1.1" id="Layer_1" xmlns="http://www.w3.org/2000/svg" xmlns:xlink="http://www.w3.org/1999/xlink" x="0px" y="0px"
	 viewBox="0 0 36 36" style="enable-background:new 0 0 36 36;" xml:space="preserve">
<style type="text/css">
	.st0{fill-rule:evenodd;clip-rule:evenodd;fill:#8C8C8C;stroke:#414141;stroke-miterlimit:10;}
	.st1{fill:#BFBFBF;stroke:#414141;stroke-miterlimit:10;}
	.st2{fill-rule:evenodd;clip-rule:evenodd;fill:#BFBFBF;stroke:#414141;stroke-miterlimit:10;}
</style>
<path class="st0" d="M17.1,35C8.2,35,1,27.9,1,19.2S8.2,3.4,17.1,3.4c1.4,0,2.6,0.2,3.8,0.5c0.1,0,0.2,0,0.3,0
	c0.9,0,2.2-0.6,3.6-1.2c2-0.8,4-1.7,5.9-1.7C32,1,33,1.4,33.8,2.3c2.1,2.1,1,5.7-0.1,8.8c-0.6,1.8-1.2,3.6-0.9,4.6
	c0.3,1.2,0.4,2.3,0.4,3.5C33.2,27.9,26,35,17.1,35z"/>
<path class="st1" d="M32.6,19.2C23.9,19.1,17,12.4,16.8,3.9V3.4h0.5c1.2,0,2.5,0.1,3.6,0.4c0.1,0,0.2,0,0.4,0c0.9,0,2.3-0.6,3.7-1.2
	C26.8,1.9,28.9,1,30.7,1C32,1,33,1.5,33.8,2.3c2.1,2.1,1,5.6,0,8.8c-0.6,1.9-1.3,3.6-1,4.6c0.2,0.9,0.4,1.8,0.4,3v0.5H32.6z"/>
<path class="st2" d="M13.9,32.4c-0.1,0-0.3,0-0.4-0.1L10,28.7l-3.5,3.5c-0.1,0.1-0.2,0.1-0.4,0.1s-0.3,0-0.4-0.1L4,30.4
	c-0.2-0.2-0.2-0.5,0-0.7l3.5-3.5L4,22.7c-0.1-0.1-0.1-0.2-0.1-0.4s0-0.2,0.1-0.3l1.8-1.8c0.1-0.1,0.2-0.1,0.4-0.1s0.3,0,0.4,0.1
	l3.5,3.5l3.5-3.5c0.1-0.1,0.2-0.1,0.4-0.1s0.3,0,0.4,0.1l1.8,1.8c0.1,0.1,0.1,0.2,0.1,0.4s-0.1,0.3-0.1,0.4l-3.5,3.5l3.5,3.5
	c0.2,0.2,0.2,0.5,0,0.7l-1.8,1.8C14.2,32.3,14,32.4,13.9,32.4z"/>
</svg>
