<?xml version="1.0" encoding="utf-8"?>
<!-- Generator: Adobe Illustrator 23.1.1, SVG Export Plug-In . SVG Version: 6.00 Build 0)  -->
<svg version="1.1" id="Layer_1" xmlns="http://www.w3.org/2000/svg" xmlns:xlink="http://www.w3.org/1999/xlink" x="0px" y="0px"
	 viewBox="0 0 36 36" style="enable-background:new 0 0 36 36;" xml:space="preserve">
<style type="text/css">
	.st0{fill-rule:evenodd;clip-rule:evenodd;fill:#8C8C8C;stroke:#414141;stroke-miterlimit:10;}
	.st1{fill:#BFBFBF;stroke:#414141;stroke-miterlimit:10;}
</style>
<path class="st0" d="M18.3,34.8c-2,0-3.1-1-4.2-2c-0.6-0.5-1.2-1.1-1.9-1.5c-0.6-0.3-1.4-0.4-2-0.4c-0.3,0-0.7,0-1,0
	c-0.4,0-0.7,0-1.1,0c-1.6,0-3.4-0.2-4.3-2c-0.9-1.6-0.5-3-0.2-4.3c0.3-1,0.5-2,0.2-3.1c-0.1-0.4-0.3-0.8-0.4-1.2
	c-0.8-2.1-1.8-4.8-0.3-8.1c2.5-5.5,8.2-9,14.4-9c1.3,0,2.6,0.2,3.8,0.5c0.1,0,0.2,0,0.3,0c0.9,0,2.2-0.6,3.6-1.2
	C26.8,1.9,28.9,1,30.7,1C32,1,33,1.5,33.8,2.3c2.1,2.1,1,5.6,0,8.8c-0.6,1.8-1.1,3.6-0.9,4.6c0.3,1.1,0.4,2.3,0.4,3.4
	c0,3-0.9,6-2.5,8.5c-1.2,1.8-2.7,2.1-4.5,2.5c-0.4,0.1-0.8,0.2-1.2,0.3c-1,0.2-1.8,1.1-2.7,2C21.2,33.6,20.1,34.8,18.3,34.8z"/>
<path class="st1" d="M32.6,19.2C23.9,19.1,17,12.4,16.8,3.9V3.4h0.5c1.2,0,2.5,0.1,3.6,0.4c0.1,0,0.2,0,0.4,0c0.9,0,2.3-0.6,3.7-1.2
	C26.8,1.9,28.9,1,30.7,1C32,1,33,1.5,33.8,2.3c2.1,2.1,1,5.6,0,8.8c-0.6,1.9-1.3,3.6-1,4.6c0.2,0.9,0.4,1.8,0.4,3v0.5H32.6z"/>
</svg>
